<svg xmlns="http://www.w3.org/2000/svg" viewBox="0 0 329.25 71.31"><defs><style>.cls-1{fill:#fff;}</style></defs><title>eureka-heade-logo</title><g id="Layer_2" data-name="Layer 2"><g id="Layer_1-2" data-name="Layer 1"><path class="cls-1" d="M27,70.39c0-2.35,0-4.56,0-6.76,0-5.74,0-11.49.06-17.23,0-1.67-.38-2.26-2.17-2.23-7.68.11-15.35,0-23,.08C.51,44.25,0,43.94,0,42.46q.13-7.33,0-14.67C0,26.32.52,26,1.88,26c8.19.05,16.38,0,24.57,0,1.41,0,2.11-.17,2.09-1.89-.08-7.39,0-14.78,0-22.18,0-.55,0-1.11,0-1.75.55-.06.93-.13,1.31-.13,4.27,0,8.53,0,12.79,0,1.07,0,1.55.28,1.54,1.43,0,6.65,0,13.31,0,20a7.48,7.48,0,0,1-7.77,7.4c-10.35,0-20.7,0-31.05,0-2.44,0-2.44,0-2.45,2.38,0,2.79.06,5.57,0,8.36,0,1.35.44,1.77,1.77,1.76,7.79,0,15.58,0,23.37,0,2.21,0,2.21,0,2.21,2.29,0,7.28,0,14.56,0,21.84,0,1.58.37,2.24,2.09,2.17,2.89-.13,5.8-.09,8.7,0,1.33,0,1.77-.31,1.76-1.7-.05-9.67,0-19.34,0-29a15.93,15.93,0,0,1,.18-2.88,7.8,7.8,0,0,1,7.47-6.42c6.94-.09,13.88,0,20.81-.06,1,0,1.57.29,1.55,1.45,0,3.86-.09,7.73,0,11.59,0,1.64-.62,2-2.11,1.95-7.51-.06-15,0-22.52,0-1.65,0-2.17.55-2.15,2.16.06,7.9,0,15.81.08,23.71,0,1.6-.36,2.15-2.08,2.11-5.06-.13-10.12,0-15.18-.05C28.27,70.49,27.71,70.43,27,70.39Z"/><path class="cls-1" d="M244.45,49.59c1.42.76,2.61,1.27,3.67,2,3.19,2.14,4.3,5.26,4.06,9s-2.33,6.36-5.79,7.9a28.2,28.2,0,0,1-11.49,2c-6.65.06-13.29,0-19.94,0-1.31,0-1.79-.32-1.79-1.7,0-11.47,0-22.95,0-34.42,0-3,1-3.92,4-3.92,6,0,12,0,18.07,0a21.57,21.57,0,0,1,11,2.9c5.19,3.06,5.38,11.63.2,14.76C245.87,48.54,245.3,49,244.45,49.59Zm-20.09,4.56c0,2.64,0,5.23,0,7.82,0,.29.65.81,1,.8,3.85,0,7.71,0,11.55-.25a3.82,3.82,0,0,0,3.72-2.74c.87-2.92-.61-5.34-3.93-5.56C232.69,53.94,228.61,54.15,224.36,54.15Zm0-7.66c3.6,0,6.95.12,10.29,0,2.61-.12,4.22-1.78,4.29-4s-1.37-3.85-4.12-4.08c-3.1-.27-6.24-.2-9.36-.16a1.56,1.56,0,0,0-1,1.11C224.29,41.65,224.34,44,224.34,46.48Z"/><path class="cls-1" d="M142.77,29.63c7.35.29,13.61,2.06,18.31,7.63S167,49.43,165,56.42c-2.6,9.44-10.71,14-19.42,14.71-5.41.42-10.63-.32-15.39-3.27a22.7,22.7,0,0,1-6.88-6.95,18.19,18.19,0,0,1-1.65-17.72,20.72,20.72,0,0,1,15.91-13C139.42,29.86,141.3,29.79,142.77,29.63ZM131.63,50.27c-.21,6.86,4.55,11.84,11.45,12.14,6.22.28,11.64-5.37,11.89-11.54s-5.14-12.48-11.63-12.32C136.64,38.71,131.9,42.77,131.63,50.27Z"/><path class="cls-1" d="M199.54,58l8.73,12.54a38.66,38.66,0,0,0-5.89,0c-4.4.73-7.44-.72-9.39-4.8a27,27,0,0,0-3.33-4.93,3.41,3.41,0,0,0-2.07-1.1c-1.34-.17-2.72,0-4.08-.06s-1.73.41-1.7,1.67c.06,2.1,0,4.2,0,6.3a2.45,2.45,0,0,1-2.3,2.71c-2.75.16-5.52,0-8.35,0,0-.45-.11-.78-.11-1.11q0-17.73,0-35.45c0-2.28.9-3.31,3.15-3.31,6.47,0,13-.14,19.4.36,4.63.36,8.91,2.11,11.76,6.27,4,5.89,3.26,16.85-5.46,20.53A2,2,0,0,0,199.54,58ZM181.81,45.15h0c0,1.48.06,3,0,4.43s.41,2,1.85,1.9c2.27-.13,4.54-.11,6.82-.2,3.39-.13,5.67-2.28,5.84-5.45.2-3.81-1.66-6.3-5.26-6.67-2.53-.26-5.11-.13-7.66-.23-1.2,0-1.61.48-1.57,1.62C181.85,42.08,181.81,43.62,181.81,45.15Z"/><path class="cls-1" d="M289.63,70.41c-.75,0-1.2.09-1.65.09-9.72,0-19.44,0-29.15,0-1.35,0-1.87-.29-1.86-1.77.05-11.48,0-23,0-34.44,0-2.9,1-3.83,3.92-3.84q12.53,0,25.06,0c2.76,0,3.63.92,3.67,3.69,0,1.46,0,2.92,0,4.5-.75,0-1.3.08-1.85.08-6,0-12,0-18.07,0-1.26,0-1.74.37-1.66,1.64.12,1.8-.55,4.24.38,5.24s3.37.47,5.16.5c3.12.06,6.25,0,9.38,0,2.44,0,3.51,1.13,3.5,3.57,0,1.36,0,2.72,0,4.29-.75,0-1.4.12-2.05.12-4.83,0-9.66,0-14.49,0-1.4,0-2,.4-1.88,1.84a40,40,0,0,1,0,4.6c-.07,1.25.37,1.68,1.65,1.66,5.4-.06,10.8,0,16.2,0,2.75,0,3.69.93,3.72,3.64C289.65,67.33,289.63,68.8,289.63,70.41Z"/><path class="cls-1" d="M327.55,32.85c-.82,2-1.43,3.7-2.2,5.33s-2.55,2.15-4.58,1.38a21.47,21.47,0,0,0-9.52-1.44,12.57,12.57,0,0,0-4,1,2.58,2.58,0,0,0-1.51,3.26A4.42,4.42,0,0,0,308,44.76c2.78.94,5.7,1.45,8.52,2.29a58.38,58.38,0,0,1,7.21,2.52c6.05,2.69,6.18,9.15,4.67,13.17-1.7,4.5-5.59,6.46-9.73,7.51a33.5,33.5,0,0,1-23.54-2.56,3.12,3.12,0,0,1-.57-.37,4.18,4.18,0,0,1-.41-.46c.68-1.51,1.34-3.08,2.09-4.59,1-2,2.3-2.45,4.32-1.56a25.4,25.4,0,0,0,12.63,2.12,12.63,12.63,0,0,0,3-.65,2.74,2.74,0,0,0,2-2.71,2.62,2.62,0,0,0-1.77-2.82c-2.37-.78-4.77-1.45-7.18-2.11-2.24-.62-4.54-1.05-6.74-1.8-4.88-1.65-7.54-5-7.71-9.53a11.7,11.7,0,0,1,6.93-11.33c6.71-3,13.57-2.74,20.48-.83C323.94,31.53,325.66,32.21,327.55,32.85Z"/><path class="cls-1" d="M117.73,38.79H107c-2.67,0-5.34.07-8,0-1.31-.05-1.7.45-1.68,1.65q.06,3.24,0,6.47c0,1.19.6,1.38,1.61,1.37,4.21,0,8.41,0,12.62,0,3.09,0,4,1,4.05,4.09,0,4.2,0,4.2-4.13,4.2s-8.18.06-12.28,0c-1.38,0-1.93.36-1.88,1.83.09,2.9.06,5.8,0,8.69-.06,2.55-1,3.42-3.59,3.45-2.1,0-4.21,0-6.31,0-1,0-1.3-.31-1.3-1.27,0-11.94,0-23.87,0-35.81a2.73,2.73,0,0,1,3-3q12.79-.05,25.57,0c2.24,0,3.2,1.06,3.25,3.27,0,1.42,0,2.84,0,4.26A4.58,4.58,0,0,1,117.73,38.79Z"/><path class="cls-1" d="M156,16.83,160.88,24a7.19,7.19,0,0,1-8.8-2.42,18.79,18.79,0,0,0-1.68-2.35,4.48,4.48,0,0,0-2.22-1.49c-3-.35-3-.23-3,2.8,0,1.22.39,2.87-1,3.31a18.47,18.47,0,0,1-5,.41c-.15,0-.46-.73-.46-1.12q0-10.41,0-20.81c0-1.32.6-2.26,2-2.24,4.14.06,8.3,0,12.42.35a8.23,8.23,0,0,1,7.49,6c1,4.2-.11,7.11-3.6,9.64C156.7,16.28,156.45,16.49,156,16.83Zm-10.82-8c0,4.17,0,4.18,4.17,4,.51,0,1.13.11,1.5-.12,1.14-.72,2.57-1.39,3.14-2.48a4,4,0,0,0-.48-3.4C152.58,5.4,150.91,5,149.17,5,145.18,4.94,145.18,4.9,145.19,8.83Z"/><path class="cls-1" d="M213.32.07c-2.48,2.68-4.63,5-6.77,7.32-3.12,3.39-3.09,3.38-.29,7,2.51,3.2,5,6.45,7.67,10-2.54,0-4.78.06-7,0-.43,0-.89-.63-1.24-1-2-2.32-3.95-4.65-5.88-7-.62-.76-1.07-.72-1.79-.06a5.32,5.32,0,0,0-2,4.56c.07,1.06-.31,2.89-.95,3.12a15.64,15.64,0,0,1-5,.45c-.16,0-.49-.72-.5-1.11q0-10.4,0-20.8A2.09,2.09,0,0,1,191.88.07c5.06,0,4.08-.61,4.18,3.87,0,1.87,0,3.75,0,5.62a2.07,2.07,0,0,0,.19.48,4.77,4.77,0,0,0,.92-.57c2.74-2.77,5.42-5.59,8.22-8.3A4.39,4.39,0,0,1,207.87.12C209.5,0,211.15.07,213.32.07Z"/><path class="cls-1" d="M106.3,5c-3.94,0-7.62.07-11.3,0-1.47,0-1.94.53-1.83,1.86a8,8,0,0,1,0,1.19c-.08,1.19.34,1.74,1.65,1.68,2.32-.1,4.66,0,7,0a2.82,2.82,0,0,1,2.32,4.19c-.21.35-1,.48-1.49.49-2.61.08-5.23.17-7.83.08-1.34,0-1.72.51-1.66,1.68,0,.06,0,.11,0,.17-.1,3.27-.1,3.26,3.19,3.24,2.5,0,5,0,7.5,0a3,3,0,0,1,2.28,4.4,1.86,1.86,0,0,1-1.35.46c-5.62,0-11.25,0-16.87,0-1.07,0-1.53-.28-1.52-1.43,0-6.87,0-13.75,0-20.62A2,2,0,0,1,88.76.08c4.71,0,9.43,0,14.14,0,3,0,3.45.5,3.4,3.49C106.3,3.93,106.3,4.32,106.3,5Z"/><path class="cls-1" d="M165.18,24.36c0-4.79,0-9.33,0-13.87,0-2.67,0-5.35,0-8,0-1.78.59-2.38,2.32-2.39,5,0,10,0,15,0a2.85,2.85,0,0,1,2.56,4.34c-.18.34-.94.5-1.44.51-3.18,0-6.37,0-9.55,0-2.21,0-2.21,0-2.2,2.28a4.8,4.8,0,0,1,0,.68c-.19,1.33.34,1.82,1.71,1.76,2.21-.1,4.43,0,6.65,0a2.77,2.77,0,0,1,2.57,4.12c-.17.34-.92.54-1.41.55-2.56.06-5.12.08-7.68,0-1.36,0-1.93.36-1.89,1.83.12,3.77-.37,3.3,3.25,3.34,2.44,0,4.89,0,7.34,0a2.83,2.83,0,0,1,2.67,4.26,1.22,1.22,0,0,1-.91.57C178,24.37,171.71,24.36,165.18,24.36Z"/><path class="cls-1" d="M111.19.07c1.43,0,2.89-.08,4.35,0s1.76,1,1.75,2.27c0,3.41,0,6.82,0,10.23a16.59,16.59,0,0,0,.25,2.71c.5,2.88,2,4.23,4.64,4.25,3.18,0,4.91-1.11,5.21-4.14.36-3.55.26-7.14.29-10.72,0-4.73,0-4.75,4.73-4.64.44,0,.89.07,1.44.12,0,.49.12.93.12,1.36,0,4.38.06,8.76,0,13.13a9.58,9.58,0,0,1-7.72,9.67,14.9,14.9,0,0,1-9.68-.65,8.77,8.77,0,0,1-5.49-7.83c-.32-5-.1-10.11-.1-15.17A2.57,2.57,0,0,1,111.19.07Z"/><path class="cls-1" d="M244.53,24.38h-2.65c-4.56,0-4.09-.24-5.48-3.63a2.33,2.33,0,0,0-1.7-1.17c-2.78-.12-5.57,0-8.35,0-1,0-2,0-2.22,1.3-.56,3.05-2.6,3.82-5.36,3.56-.73-.07-1.47,0-2.51,0,.42-1,.75-1.9,1.12-2.74q4.39-10,8.8-19.93A2.48,2.48,0,0,1,228.63,0c5.11-.13,5.13-.17,7.19,4.45q4.15,9.33,8.27,18.67C244.22,23.46,244.31,23.78,244.53,24.38ZM226.61,14.7h7.47l-3.56-8.16-.64,0Z"/></g></g></svg>